<?xml version="1.0" encoding="utf-8"?>
<?xml-stylesheet type="text/xsl" href="rss1.xsl"?>
<rss version="2.0" xmlns:atom="http://www.w3.org/2005/Atom" xmlns:content="http://purl.org/rss/1.0/modules/content/" xmlns:dc="http://purl.org/dc/elements/1.1/" xmlns:media="http://search.yahoo.com/mrss/">
<channel>
 <title>Getty</title>
 <link>http://www.gettyimg.com/</link>
 <atom:link href="http://www.gettyimg.com/" rel="self" type="application/rss+xml" />

 
                <item>
                <title><![CDATA[【MASTER &amp; MASTER RIP】MASTER - DON DIABLO &amp; CID - GOT ME THINKIN (1080)]]></title>
                <link><![CDATA[https://sharemania.us/threads/don-diablo-cid-got-me-thinkin-1080.242455/]]></link>
                <description><![CDATA[<article>
<blockquote class="messageText SelectQuoteContainer ugc baseHtml">
<div style="text-align: center"><img src="https://i.ibb.co/XC3yS7g/20240418163623.gif" class="bbCodeImage LbImage" alt="[​IMG]" data-url="https://i.ibb.co/XC3yS7g/20240418163623.gif" style=""><br>
​</div>
<div class="ToggleTriggerAnchor bbCodeSpoilerContainer">
<button type="button" class="button bbCodeSpoilerButton ToggleTrigger Tooltip JsOnly" data-target="> .SpoilerTarget"><span>Spoiler: <span class="SpoilerTitle">MASTER</span></span></button>
<div class="SpoilerTarget bbCodeSpoilerText">
<div class="bbCodeBlock bbCodeCode">
<div class="type">Code:</div>
<pre>General
Complete name                            : DON DIABLO &amp; CID - GOT ME THINKIN.mov
Format                                   : MPEG-4
Format profile                           : QuickTime
Codec ID                                 : qt   2005.03 (qt  )
File size                                : 1 023 MiB
Duration                                 : 3 min 5 s
Overall bit rate mode                    : Variable
Overall bit rate                         : 46.2 Mb/s
Frame rate                               : 25.000 FPS
Encoded date                             : 2013-12-19 02:55:02 UTC
Tagged date                              : 2013-12-19 05:05:26 UTC
Writing library                          : Apple QuickTime
TIM                                      : 00:00:00:00
TSC                                      : 25
TSZ                                      : 1

Video
ID                                       : 1
Format                                   : AVC
Format/Info                              : Advanced Video Codec
Format profile                           : Main@L5.1
Format settings                          : 2 Ref Frames
Format settings, CABAC                   : No
Format settings, Reference frames        : 2 frames
Format settings, GOP                     : N=1
Format settings, Slice count             : 8 slices per frame
Codec ID                                 : avc1
Codec ID/Info                            : Advanced Video Coding
Duration                                 : 3 min 5 s
Bit rate mode                            : Variable
Bit rate                                 : 44.6 Mb/s
Width                                    : 1 920 pixels
Height                                   : 1 080 pixels
Display aspect ratio                     : 16:9
Frame rate mode                          : Constant
Frame rate                               : 25.000 FPS
Color space                              : YUV
Chroma subsampling                       : 4:2:0
Bit depth                                : 8 bits
Scan type                                : Progressive
Bits/(Pixel*Frame)                       : 0.861
Stream size                              : 989 MiB (97%)
Language                                 : English
Encoded date                             : 2013-12-19 02:55:02 UTC
Tagged date                              : 2013-12-19 05:05:26 UTC
Color range                              : Limited
Color primaries                          : BT.709
Transfer characteristics                 : BT.709
Matrix coefficients                      : BT.709
Codec configuration box                  : avcC

Audio
ID                                       : 2
Format                                   : PCM
Format settings                          : Little / Signed
Codec ID                                 : sowt
Duration                                 : 3 min 5 s
Source duration                          : 3 min 6 s
Bit rate mode                            : Constant
Bit rate                                 : 1 536 kb/s
Channel(s)                               : 2 channels
Channel layout                           : L R
Sampling rate                            : 48.0 kHz
Bit depth                                : 16 bits
Stream size                              : 34.0 MiB (3%)
Source stream size                       : 34.1 MiB (3%)
Language                                 : English
Encoded date                             : 2013-12-19 02:55:02 UTC
Tagged date                              : 2013-12-19 05:05:26 UTC

Other
ID                                       : 3
Type                                     : Time code
Format                                   : QuickTime TC
Duration                                 : 3 min 5 s
Frame rate                               : 25.000 FPS
Time code of first frame                 : 00:00:00:00
Time code of last frame                  : 00:03:05:21
Time code, stripped                      : Yes
Language                                 : English
Encoded date                             : 2013-12-19 05:05:26 UTC
Tagged date                              : 2013-12-19 05:05:26 UTC

</pre>
</div><div style="text-align: center">​</div></div>
</div><div style="text-align: center"><br>
<div class="bbCodeBlock bbCodeVfcHH HiddenContent">
<div class="attribution type">Hidden Content:</div>
<blockquote>You must reply before you can see the hidden data contained here.</blockquote>
</div></div>
<div class="messageTextEndMarker">&nbsp;</div>
</blockquote>
</article>]]></description>
                <author><![CDATA[fstambuk]]></author>
                </item>

                
                <item>
                <title><![CDATA[【Apple Music】WEB-RiP - Roxette - Let Your Heart Dance With Me (1080p)]]></title>
                <link><![CDATA[https://sharemania.us/threads/roxette-let-your-heart-dance-with-me-1080p.242456/]]></link>
                <description><![CDATA[<article>
<blockquote class="messageText SelectQuoteContainer ugc baseHtml">
<img src="https://i.postimg.cc/g2zTkb3j/Roxette-Let-Your-Heart-Dance-With-Me-mp4.jpg" class="bbCodeImage LbImage" alt="[​IMG]" data-url="https://i.postimg.cc/g2zTkb3j/Roxette-Let-Your-Heart-Dance-With-Me-mp4.jpg" style=""><br>
<br>
<div class="bbCodeBlock bbCodeCode">
<div class="type">Code:</div>
<pre>General
Complete name                  : G:\Новая папка\Roxette - Let Your Heart Dance With Me.mp4
Format                         : MPEG-4
Format profile                 : Base Media
Codec ID                       : isom (isom/iso2/avc1/mp41)
File size                      : 226 MiB
Duration                       : 3 min 9 s
Overall bit rate               : 10.0 Mb/s
Frame rate                     : 25.000 FPS
Movie name                     : Let Your Heart Dance With Me
Performer                      : Roxette
Genre                          : Pop
ContentType                    : Music Video
Recorded date                  : 2020-10-02 07:00:00 UTC
Writing application            : Lavf56.30.100
Copyright                      : ℗ 2020 Roxette Recordings under exclusive license to Parlophone Music Sweden a division of Warner Music Sweden AB

Video
ID                             : 1
Format                         : AVC
Format/Info                    : Advanced Video Codec
Format profile                 : High@L4
Format settings                : CABAC / 5 Ref Frames
Format settings, CABAC         : Yes
Format settings, Reference fra : 5 frames
Format settings, Slice count   : 8 slices per frame
Codec ID                       : avc1
Codec ID/Info                  : Advanced Video Coding
Duration                       : 3 min 9 s
Bit rate                       : 9 770 kb/s
Width                          : 1 440 pixels
Height                         : 1 080 pixels
Display aspect ratio           : 4:3
Frame rate mode                : Constant
Frame rate                     : 25.000 FPS
Color space                    : YUV
Chroma subsampling             : 4:2:0
Bit depth                      : 8 bits
Scan type                      : Progressive
Bits/(Pixel*Frame)             : 0.251
Stream size                    : 220 MiB (97%)
Color range                    : Limited
Color primaries                : BT.709
Transfer characteristics       : BT.709
Matrix coefficients            : BT.709
Codec configuration box        : avcC

Audio
ID                             : 2
Format                         : AAC LC
Format/Info                    : Advanced Audio Codec Low Complexity
Codec ID                       : mp4a-40-2
Duration                       : 3 min 9 s
Duration_LastFrame             : -7 ms
Bit rate mode                  : Constant
Bit rate                       : 259 kb/s
Channel(s)                     : 2 channels
Channel layout                 : L R
Sampling rate                  : 48.0 kHz
Frame rate                     : 46.875 FPS (1024 SPF)
Compression mode               : Lossy
Stream size                    : 5.84 MiB (3%)
Default                        : Yes
Alternate group                : 1

</pre>
</div>
<div class="bbCodeBlock bbCodeVfcHH HiddenContent">
<div class="attribution type">Hidden Content:</div>
<blockquote>You must either reply or click 'Like' to see the hidden information contained here.</blockquote>
</div>
<div class="messageTextEndMarker">&nbsp;</div>
</blockquote>
</article>]]></description>
                <author><![CDATA[vitalya3]]></author>
                </item>

                </channel></rss>